<?xml version="1.0" standalone="no"?>
<!DOCTYPE svg PUBLIC "-//W3C//DTD SVG 1.1//EN" "http://www.w3.org/Graphics/SVG/1.1/DTD/svg11.dtd" >
<svg xmlns="http://www.w3.org/2000/svg">
<metadata></metadata>
<defs>
<font id="pf_din_text_cond_proregular" horiz-adv-x="955" >
<font-face units-per-em="2048" ascent="1536" descent="-512" />
<missing-glyph horiz-adv-x="455" />
<glyph horiz-adv-x="2048" />
<glyph horiz-adv-x="2048" />
<glyph unicode="&#xd;" horiz-adv-x="2048" />
<glyph unicode=" "  horiz-adv-x="455" />
<glyph unicode="&#x09;" horiz-adv-x="455" />
<glyph unicode="&#xa0;" horiz-adv-x="455" />
<glyph unicode="!" horiz-adv-x="509" d="M165 0v193h185v-193h-185zM170 1510h171l-18 -1126h-136z" />
<glyph unicode="&#x22;" horiz-adv-x="607" d="M108 1081v429h135v-429h-135zM365 1081v429h134v-429h-134z" />
<glyph unicode="#" d="M24 478v119h187l52 327h-168v120h187l76 469h124l-76 -469h217l76 469h124l-79 -469h176v-120h-195l-52 -327h176v-119h-196l-75 -478h-124l76 478h-217l-77 -478h-124l79 478h-167zM332 597h217l54 327h-216z" />
<glyph unicode="$" d="M58 245l143 89q31 -67 88 -118t146 -62v536q-178 67 -264 159.5t-86 250.5q0 170 91 282t259 126v176h95v-176q137 -10 222.5 -77.5t119.5 -147.5l-145 -96q-28 63 -77 103t-120 52v-497q102 -25 170 -64t108.5 -93t58 -123.5t17.5 -154.5q0 -184 -89 -296t-265 -125 v-217h-95v217q-139 9 -235 81.5t-142 174.5zM265 1098q0 -83 43.5 -132.5t126.5 -86.5v465q-87 -15 -128.5 -82.5t-41.5 -163.5zM530 156q100 15 138 83.5t38 168.5q0 54 -11 94.5t-34 68.5t-55.5 48.5t-75.5 38.5v-502z" />
<glyph unicode="%" horiz-adv-x="1388" d="M85 829v456q0 106 70.5 169.5t174.5 63.5q106 0 176 -63t70 -170v-456q0 -108 -72 -170t-174 -62t-173.5 62t-71.5 170zM222 829q0 -50 29 -79t79 -29q49 0 79 29t30 79v456q0 45 -30 76t-79 31q-50 0 -79 -31t-29 -76v-456zM224 -37l801 1587h123l-802 -1587h-122z M816 215v473q0 52 19.5 94.5t54 70.5t78 43.5t93.5 15.5q48 0 92.5 -15.5t79.5 -43.5t54.5 -70.5t19.5 -94.5v-473q0 -54 -19.5 -95.5t-54.5 -70t-79 -43t-93 -14.5q-50 0 -93.5 14.5t-78 43t-54 70t-19.5 95.5zM953 215q0 -50 29 -74.5t79 -24.5t79.5 24.5t29.5 74.5v473 q0 46 -29 71.5t-80 25.5q-50 0 -79 -25.5t-29 -71.5v-473z" />
<glyph unicode="&#x26;" horiz-adv-x="1189" d="M120 365q0 139 66 245.5t198 207.5q-27 44 -54.5 86.5t-49 88t-36 93t-14.5 101.5q0 72 23 134t66.5 107.5t107.5 71.5t146 26q100 0 180 -33.5t140 -114.5l-127 -104q-49 54 -91.5 72.5t-105.5 18.5q-87 0 -127 -54t-40 -122q0 -39 22.5 -95t60 -121.5t84 -137t96 -142 t97.5 -138.5t87 -125q31 61 44.5 119t24.5 122l163 -13q-13 -93 -43.5 -192t-82.5 -188q46 -70 94.5 -140.5t96.5 -137.5h-206l-99 141q-79 -83 -168 -118.5t-186 -35.5q-87 0 -155.5 29.5t-115 79t-71.5 119t-25 150.5zM290 375q0 -95 57 -161.5t163 -66.5q70 0 136 38.5 t106 85.5q-70 104 -139.5 208.5t-141.5 208.5q-87 -70 -134 -146t-47 -167z" />
<glyph unicode="'" horiz-adv-x="448" d="M154 1081v429h134v-429h-134z" />
<glyph unicode="(" horiz-adv-x="542" d="M93 662q0 139 27 266t75 241t110 215t132 188l91 -50q-58 -89 -106.5 -192.5t-82 -214t-52 -223.5t-18.5 -221q0 -236 71.5 -461t185.5 -401l-83 -59q-70 87 -133 189t-112 217t-77 242.5t-28 263.5z" />
<glyph unicode=")" horiz-adv-x="542" d="M58 1520q25 13 46.5 25.5t44.5 24.5q70 -87 132 -188.5t110 -215t75 -240.5t27 -266q0 -136 -28 -262.5t-77.5 -241.5t-112 -217t-132.5 -189l-83 59q57 87 105 188t81.5 211.5t52 227.5t18.5 235q0 108 -18.5 221t-52 222.5t-81 213t-107.5 192.5z" />
<glyph unicode="*" horiz-adv-x="772" d="M56 1220q2 9 8 27.5t12.5 39t11.5 39t10 29.5l232 -98q0 15 -3.5 52t-6.5 77.5t-6 76t-3 53.5h138l-22 -259q15 7 48 20t69 28t68 29l48 21q2 -11 8.5 -29.5t13 -39t13.5 -39t9 -27.5l-244 -62l168 -199q-9 -6 -24.5 -17.5t-34 -24t-33 -24.5t-24.5 -19l-133 222 q-8 -13 -27.5 -44t-40.5 -66t-39 -66.5t-27 -47.5q-9 7 -24.5 19t-33 25.5t-34 24t-23.5 16.5l168 201q-15 4 -50 12.5t-72 18t-70.5 18.5t-49.5 13z" />
<glyph unicode="+" d="M41 571v135h371v384h133v-384h369v-135h-369v-387h-133v387h-371z" />
<glyph unicode="," horiz-adv-x="483" d="M124 -252l60 244h-54v225h206v-221l-110 -248h-102z" />
<glyph unicode="-" horiz-adv-x="800" d="M110 482v154h594v-154h-594z" />
<glyph unicode="." horiz-adv-x="472" d="M132 0v219h206v-219h-206z" />
<glyph unicode="/" horiz-adv-x="622" d="M4 -91l476 1665h137l-476 -1665h-137z" />
<glyph unicode="0" d="M116 346v818q0 87 29 154t80 113t116 69.5t137 23.5t138 -23.5t115.5 -69.5t80.5 -113t31 -154v-818q0 -87 -31 -154.5t-80.5 -113t-116 -68.5t-137.5 -23q-72 0 -137 23t-116 68.5t-80 113t-29 154.5zM288 346q0 -92 52.5 -141t137.5 -49t137 49t52 141v818 q0 91 -52.5 141t-136.5 50q-85 0 -137.5 -50t-52.5 -141v-818z" />
<glyph unicode="1" d="M245 1168l2 187l205 155h178v-1510h-176v1326z" />
<glyph unicode="2" d="M102 0v163l488 763q38 57 51.5 122.5t13.5 113.5q0 37 -8.5 71.5t-30 62.5t-56.5 44.5t-87 16.5q-87 -2 -136 -66.5t-55 -180.5l-178 27q13 176 111 280.5t263 104.5q172 0 269.5 -93t97.5 -265q0 -79 -26 -162.5t-77 -158.5l-431 -676h516v-167h-725z" />
<glyph unicode="3" d="M106 317l176 35q13 -89 52 -144.5t135 -55.5q108 0 155 79.5t47 195.5q0 282 -207 283h-89v152h81q108 0 157 61t49 177q0 48 -9 94.5t-30.5 82.5t-58 58t-91.5 22q-50 0 -82.5 -16.5t-53 -44.5t-30 -65t-17.5 -79l-172 29q8 72 34 134.5t70.5 109.5t105.5 73t143 26 q110 0 181 -34t112.5 -90t57.5 -132.5t16 -162.5q0 -44 -6.5 -90.5t-25 -90t-51 -79t-84.5 -55.5q58 -13 93 -44.5t53 -77t24 -103t6 -122.5q0 -97 -19.5 -181t-65 -145t-119.5 -95.5t-183 -34.5q-67 0 -128 21t-108.5 61.5t-79.5 102.5t-38 145z" />
<glyph unicode="4" d="M56 230v170l420 1110h182l-422 -1115h371v432h174v-432h116v-165h-116v-230h-174v230h-551z" />
<glyph unicode="5" d="M95 323l176 29q11 -100 54.5 -153.5t140.5 -53.5q72 0 112.5 35t60 89t23 121.5t3.5 133.5q0 56 -5 111t-23 99.5t-55 72.5t-102 28q-60 0 -104 -29t-72 -79h-163v783h686v-162h-527l6 -439q52 50 109 66.5t115 16.5q104 0 166 -39t94.5 -103.5t41.5 -146.5t9 -169 q0 -132 -16.5 -234.5t-58 -172t-115 -105t-187.5 -35.5q-325 0 -369 336z" />
<glyph unicode="6" d="M112 419q0 126 22 222.5t65 191.5q35 79 83 183t93.5 205t82.5 180.5t50 108.5h186l-299 -661l7 -2q24 15 59.5 22.5t68.5 7.5q87 0 146.5 -37t97.5 -96.5t54.5 -134.5t16.5 -149q0 -104 -21 -191t-65.5 -150t-116 -97.5t-173.5 -34.5q-189 0 -273 113t-84 319zM284 423 q0 -60 8 -110t29.5 -86t58.5 -57t93 -21q93 0 143.5 66.5t50.5 216.5q0 55 -8 106.5t-27 93t-56.5 65.5t-95.5 24q-64 0 -104 -28t-59 -72.5t-26 -97t-7 -100.5z" />
<glyph unicode="7" d="M110 1142v368h735v-162l-456 -1348h-182l453 1346h-387v-204h-163z" />
<glyph unicode="8" d="M98 421q0 284 167 364q-48 29 -78.5 61.5t-46.5 71.5t-22 88t-6 108q0 106 30 183t80.5 128.5t117 75t138.5 23.5q76 0 142 -23.5t115.5 -74t78.5 -128.5t29 -184q0 -120 -34 -196.5t-110 -132.5q93 -43 126 -135t33 -229q0 -122 -32.5 -204t-87 -133t-122 -74 t-138.5 -23q-76 0 -144.5 23t-120.5 74t-83.5 133.5t-31.5 203.5zM273 435q0 -81 16.5 -135.5t43.5 -88t64.5 -48t80.5 -14.5q106 0 152.5 69.5t46.5 220.5q0 149 -50.5 213.5t-148.5 64.5q-91 0 -148 -64.5t-57 -217.5zM288 1102q0 -244 190 -244q93 0 141 60.5t48 195.5 q0 118 -44.5 180.5t-144.5 62.5t-145 -64t-45 -191z" />
<glyph unicode="9" d="M108 1050q0 104 22 191t67.5 150t118.5 98t175 35q188 0 271 -113t83 -319q2 -126 -23 -222.5t-68 -192.5q-7 -12 -32.5 -67t-58.5 -128.5t-70.5 -156t-69.5 -153t-54 -119.5t-24 -53h-186l299 662l-7 3q-24 -15 -58.5 -22t-67.5 -7q-87 0 -147.5 37t-97.5 96.5 t-54.5 133.5t-17.5 147zM286 1083q0 -56 8 -109.5t31 -94.5t61.5 -65t104.5 -24q54 0 89 24t54 63t27 92.5t8 111.5q0 61 -8 112t-28 88t-57.5 58.5t-93.5 21.5q-93 0 -144.5 -64t-51.5 -214z" />
<glyph unicode=":" horiz-adv-x="468" d="M126 0v219h206v-219h-206zM126 634v221h206v-221h-206z" />
<glyph unicode=";" horiz-adv-x="468" d="M122 -252l60 244h-52v225h206v-221l-110 -248h-104zM130 634v221h206v-221h-206z" />
<glyph unicode="&#x3c;" d="M58 578v124l830 418v-147l-675 -333l675 -332v-147z" />
<glyph unicode="=" d="M41 382v142h873v-142h-873zM41 758v141h873v-141h-873z" />
<glyph unicode="&#x3e;" d="M60 161v147l676 332l-676 333v147l830 -418v-124z" />
<glyph unicode="?" horiz-adv-x="941" d="M83 1137q12 98 49.5 171t91.5 121t122 70.5t145 22.5q188 0 285.5 -104.5t97.5 -277.5q0 -52 -7 -93.5t-21.5 -77t-35 -68.5t-46.5 -72q-24 -35 -54.5 -70.5t-57.5 -75t-45.5 -80.5t-18.5 -81v-131h-180v102q0 78 18.5 138.5t62.5 117.5q80 109 136.5 184.5t60.5 154.5 q0 45 -6.5 91.5t-28 85t-63 62t-108.5 23.5q-50 0 -90 -20.5t-67 -54.5t-42.5 -77t-17.5 -86zM404 0v193h182v-193h-182z" />
<glyph unicode="@" horiz-adv-x="1714" d="M116 729q0 174 54 320.5t153.5 253t242 166.5t318.5 60q161 0 292 -52.5t223 -145t143 -220t51 -278.5q0 -149 -31 -251t-83 -165t-120.5 -90t-144.5 -27q-19 0 -50 8.5t-61 26t-55 43.5t-35 61l-6 -2q-27 -48 -91.5 -81t-142.5 -33q-118 0 -181.5 68.5t-63.5 179.5 q0 48 13.5 93.5t44.5 81t78.5 58.5t114.5 23h198v105q0 56 -38 88.5t-114 32.5q-50 0 -90.5 -24t-59.5 -61l-117 59q37 70 105 112t160 42q64 0 117.5 -11.5t93 -41.5t61 -77.5t21.5 -118.5v-365q0 -65 32.5 -100t75.5 -35q44 0 84 15t70.5 59.5t49 123t18.5 203.5 q0 135 -44.5 240.5t-120.5 177t-177 109.5t-214 38q-149 0 -266.5 -52t-199 -142t-123.5 -212t-42 -263q0 -153 43.5 -280.5t124.5 -217.5t200.5 -139t269.5 -49q58 0 109 4.5t100 15.5t98 29t101 47l50 -126q-102 -44 -214 -71t-234 -27q-178 0 -323 54.5t-249.5 158.5 t-161.5 255t-57 346zM660 578q0 -52 37 -88t115 -36q165 0 165 145v111h-163q-70 0 -112 -30t-42 -102z" />
<glyph unicode="A" horiz-adv-x="1078" d="M19 0l439 1510h163l440 -1510h-187l-95 343h-481l-93 -343h-186zM338 506h400l-110 391l-85 334h-9l-85 -332z" />
<glyph unicode="B" horiz-adv-x="1098" d="M141 0v1510h435q208 0 309 -107t101 -289q0 -104 -39.5 -184.5t-153.5 -136.5v-8q58 -14 99.5 -48.5t67.5 -82t37.5 -104.5t11.5 -118q0 -213 -109.5 -322.5t-296.5 -109.5h-462zM321 176h263q72 0 120 21.5t76 58.5t39.5 86t11.5 105q0 113 -57 186t-194 73h-259v-530z M321 862h237q130 0 190 67t60 178q0 108 -60 173.5t-190 65.5h-237v-484z" />
<glyph unicode="C" horiz-adv-x="1017" d="M108 439v634q0 95 29.5 177t86 142t139 95t186.5 35q154 0 265.5 -76t153.5 -213l-171 -67q-21 83 -83.5 132.5t-164.5 49.5q-62 0 -111 -22.5t-82 -59.5t-50.5 -87t-17.5 -102v-642q0 -54 17.5 -104.5t50.5 -88t82 -60.5t111 -23q98 0 162 50t86 134l171 -63 q-39 -143 -150.5 -218t-268.5 -75q-102 0 -184.5 33.5t-138.5 93.5t-87 142t-31 183z" />
<glyph unicode="D" horiz-adv-x="1131" d="M139 0v1510h423q151 0 260.5 -55t161.5 -185q33 -87 36 -211.5t3 -290.5q0 -171 -2 -294.5t-35 -212.5q-31 -77 -76.5 -126.5t-104 -79t-128.5 -42.5t-143 -13h-395zM321 170h224q161 0 228.5 85.5t67.5 237.5v520q0 176 -76.5 253.5t-219.5 77.5h-224v-1174z" />
<glyph unicode="E" horiz-adv-x="986" d="M141 0v1510h801v-168h-621v-495h532v-163h-532v-508h621v-176h-801z" />
<glyph unicode="F" horiz-adv-x="965" d="M141 0v1510h801v-168h-621v-501h532v-164h-532v-677h-180z" />
<glyph unicode="G" horiz-adv-x="1098" d="M106 439v634q0 95 29.5 177t87 142t140 95t186.5 35q154 0 265.5 -76t153.5 -217l-173 -59q-21 81 -84.5 129.5t-161.5 48.5q-62 0 -111 -22.5t-83 -59.5t-51.5 -87t-17.5 -102v-650q0 -54 17.5 -104t51.5 -88t83 -60.5t111 -22.5q58 0 106.5 20.5t82 55.5t53 82.5 t19.5 101.5v239h-248v161h430v-389q0 -100 -34 -181t-92 -137.5t-140 -88t-177 -31.5q-104 0 -186.5 33.5t-139 93.5t-87 143t-30.5 184z" />
<glyph unicode="H" horiz-adv-x="1154" d="M141 0v1510h180v-663h510v663h182v-1510h-182v688h-510v-688h-180z" />
<glyph unicode="I" horiz-adv-x="470" d="M143 0v1510h182v-1510h-182z" />
<glyph unicode="J" horiz-adv-x="880" d="M-4 139l141 108q30 -37 78 -62.5t102 -25.5q100 0 168 54t68 185v1112h183v-1115q0 -110 -32.5 -187.5t-90.5 -126t-132.5 -71.5t-159.5 -23q-104 0 -187.5 40t-137.5 112z" />
<glyph unicode="K" horiz-adv-x="1119" d="M139 0v1510h182v-791q2 0 3 1t4 1q128 201 258.5 395.5t260.5 393.5h197q-97 -149 -193.5 -293t-195.5 -295l445 -922h-199l-360 749q-57 -80 -110.5 -161.5t-109.5 -160.5v-427h-182z" />
<glyph unicode="L" horiz-adv-x="959" d="M141 0v1510h180v-1334h603v-176h-783z" />
<glyph unicode="M" horiz-adv-x="1423" d="M141 0v1510h182l250 -570l144 -350h6l147 354l246 566h180v-1510h-180v1055l-9 -2l-119 -291l-209 -466h-124l-210 475l-115 284l-9 -2v-1053h-180z" />
<glyph unicode="N" horiz-adv-x="1219" d="M137 0v1510h176l423 -783l161 -310l8 2v1091h180v-1510h-173l-432 795l-155 301h-6v-1096h-182z" />
<glyph unicode="O" horiz-adv-x="1078" d="M95 466v607q0 76 24 156t76 145t137 106.5t206 41.5q116 0 199 -39t138 -103.5t81 -144.5t26 -162v-632q0 -104 -33 -187.5t-91.5 -143.5t-140 -91.5t-179.5 -31.5q-119 0 -203.5 39t-138 105t-77.5 153t-24 182zM273 1066l3 -597q0 -65 14 -123t46.5 -99.5t83.5 -67 t123 -25.5q52 0 98.5 18.5t80.5 53.5t54.5 84.5t20.5 112.5v648q0 35 -12 82.5t-41.5 90.5t-79 74.5t-128.5 31.5q-78 0 -128 -29t-80 -71.5t-42.5 -92.5t-12.5 -91z" />
<glyph unicode="P" horiz-adv-x="1050" d="M141 0v1510h430q211 0 325.5 -111.5t114.5 -341.5q0 -87 -23.5 -168t-74.5 -143t-134 -100.5t-199 -38.5h-259v-607h-180zM321 777h248q77 0 126 24t80 63t42.5 90t11.5 105q0 130 -60.5 206.5t-201.5 76.5h-246v-565z" />
<glyph unicode="Q" horiz-adv-x="1098" d="M118 469v606q0 76 23.5 155t75.5 144t137 106.5t206 41.5q115 0 199 -39t138 -102t80 -143t26 -163v-632q0 -70 -15 -130.5t-41 -111.5l151 -120l-93 -118l-152 122q-117 -98 -293 -98q-120 0 -204.5 39t-137.5 106t-76.5 154t-23.5 183zM296 1073l2 -602 q0 -65 13.5 -124t46.5 -100.5t84 -67t122 -25.5q85 0 148 45l-178 144l98 115l169 -139q17 52 17 106v648q0 35 -10.5 82.5t-40 91t-79.5 73.5t-128 30q-75 0 -125.5 -28t-81 -69t-44 -90t-13.5 -90z" />
<glyph unicode="R" horiz-adv-x="1098" d="M141 0v1510h474q184 0 290 -109t106 -311q0 -143 -63.5 -246.5t-195.5 -153.5l273 -690h-198l-251 665h-255v-665h-180zM321 823h265q122 0 182.5 71.5t60.5 195.5q0 126 -59.5 191t-187.5 65h-261v-523z" />
<glyph unicode="S" horiz-adv-x="1036" d="M48 252l161 94q43 -77 117 -131t190 -54q139 0 200 71.5t61 179.5q0 61 -18.5 103.5t-53 73t-84.5 53.5t-111 42q-112 35 -192 73t-129.5 88t-72.5 114t-23 151q0 91 30.5 167t88 131t138 85.5t180.5 30.5q167 0 269 -60t152 -151l-154 -106q-43 77 -108.5 110t-166.5 33 q-127 0 -185.5 -69t-58.5 -171q0 -58 26 -100t71.5 -71.5t106.5 -52t133 -43.5q97 -31 164.5 -70t107 -91t58.5 -118.5t19 -151.5q0 -197 -118.5 -312t-331.5 -115q-176 0 -293 71.5t-173 195.5z" />
<glyph unicode="T" horiz-adv-x="874" d="M2 1346v164h870v-164h-344v-1346h-180v1346h-346z" />
<glyph unicode="U" horiz-adv-x="1125" d="M122 439v1071h180v-1078q0 -54 18 -103t52 -86.5t83 -60.5t109 -23q115 0 188 72.5t73 200.5v1078h182v-1071q0 -104 -32.5 -188t-91 -142.5t-140 -90t-179.5 -31.5q-104 0 -185 33.5t-139 93.5t-88 143.5t-30 181.5z" />
<glyph unicode="V" horiz-adv-x="1017" d="M31 1510h188l179 -704l108 -489h6l111 493l176 700h189l-395 -1510h-170z" />
<glyph unicode="W" horiz-adv-x="1523" d="M41 1510h189l126 -692l69 -429h7l92 423l162 698h155l162 -700l91 -421h6l68 421l124 700h191l-300 -1510h-160l-170 734l-89 414h-6l-87 -406l-170 -742h-160z" />
<glyph unicode="X" horiz-adv-x="976" d="M8 0l385 783l-358 727h197l257 -561l255 561h198l-360 -727l386 -783h-195l-284 613l-282 -613h-199z" />
<glyph unicode="Y" horiz-adv-x="959" d="M15 1510h192q39 -97 80 -194.5t80 -195.5q26 -64 53 -140.5t51 -141.5h13l111 291l157 381h188l-373 -880v-630h-176v630z" />
<glyph unicode="Z" horiz-adv-x="895" d="M58 0v167l589 1179h-564v164h760v-155l-589 -1183h587v-172h-783z" />
<glyph unicode="[" horiz-adv-x="511" d="M147 -224v1740h331v-116h-174v-1508h174v-116h-331z" />
<glyph unicode="\" horiz-adv-x="572" d="M11 1550h134l410 -1604h-136z" />
<glyph unicode="]" horiz-adv-x="511" d="M46 -108h171v1508h-171v116h325v-1742h-325v118z" />
<glyph unicode="^" d="M39 721l384 785h124l387 -785h-149l-301 627l-300 -627h-145z" />
<glyph unicode="_" horiz-adv-x="1085" d="M0 -149h1085v-133h-1085v133z" />
<glyph unicode="`" horiz-adv-x="920" d="M358 1564l166 54l151 -377l-104 -40z" />
<glyph unicode="a" horiz-adv-x="924" d="M78 302q0 143 89.5 237.5t284.5 94.5h197v132q0 75 -49 115.5t-144 40.5q-63 0 -118.5 -22.5t-78.5 -79.5q-35 20 -69 40.5t-68 42.5q43 89 133.5 137t200.5 48q76 0 143.5 -16.5t118 -53t80 -98.5t29.5 -156v-764h-178v78l-9 5q-37 -48 -103 -72t-150 -24 q-79 0 -137.5 25t-96 68.5t-56.5 100.5t-19 121zM245 313q0 -72 48 -116.5t146 -44.5q91 0 150.5 41t59.5 143v148h-210q-85 0 -139.5 -40t-54.5 -131z" />
<glyph unicode="b" horiz-adv-x="937" d="M106 0v1576h176v-615h4q50 67 115 95.5t131 28.5q110 0 174.5 -46.5t98 -121t42 -172.5t8.5 -198q0 -110 -11 -212.5t-45.5 -179.5t-97.5 -122.5t-169 -45.5q-76 0 -137 27t-109 88q-2 0 -2 -1t-2 -1v-100h-176zM278 564q0 -63 1 -135.5t19.5 -134.5t60 -102t119.5 -40 q65 0 104 28.5t61 80.5t28 122.5t6 154.5q0 90 -7.5 159t-30 117t-62 73t-99.5 25q-67 0 -107.5 -32.5t-61.5 -84t-26 -112t-5 -119.5z" />
<glyph unicode="c" horiz-adv-x="835" d="M67 560q0 240 98 384t306 144q117 0 201 -53t127 -145l-144 -89q-24 57 -71.5 88t-110.5 31q-72 0 -117 -28t-70 -77t-34 -115t-9 -145q0 -78 9 -150.5t34 -129t69.5 -90t115.5 -33.5q64 0 111 33.5t71 77.5q37 -21 74 -39.5t74 -41.5q-43 -91 -128 -143t-202 -52 q-122 0 -200 41.5t-123.5 116t-63 181t-17.5 234.5z" />
<glyph unicode="d" horiz-adv-x="939" d="M85 534q0 100 11.5 198.5t47.5 177t103.5 127t177.5 48.5q65 0 122.5 -23.5t105.5 -77.5h5v592h175v-1576h-175v100q-2 0 -2.5 1t-2.5 1q-48 -61 -108.5 -88t-136.5 -27q-106 0 -170 44.5t-98 119.5t-44.5 174.5t-10.5 208.5zM263 538q0 -78 6.5 -147.5t28 -121.5 t61 -83.5t103.5 -31.5q79 0 120 43.5t58.5 107.5t18.5 134.5t1 124.5q0 67 -6.5 129.5t-26.5 111t-59 78t-104 29.5q-66 0 -106.5 -30.5t-61 -81.5t-27 -119t-6.5 -143z" />
<glyph unicode="e" horiz-adv-x="920" d="M81 536q0 102 15.5 200.5t58 177t117 126.5t188.5 48q182 0 278.5 -116.5t96.5 -320.5v-167h-578q0 -72 8 -134t32 -107.5t67.5 -71.5t113.5 -26q58 0 107 37t80 87l143 -76q-44 -95 -129.5 -150.5t-194.5 -55.5q-108 0 -184 30.5t-125 96.5t-71.5 170.5t-22.5 251.5z M261 625h401q0 148 -51 222.5t-149 74.5q-112 0 -154.5 -80t-46.5 -217z" />
<glyph unicode="f" horiz-adv-x="570" d="M37 930v143h119v245q0 134 73 199.5t188 65.5h113v-164h-89q-60 0 -83.5 -35.5t-23.5 -87.5v-223h196v-143h-196v-930h-178v930h-119z" />
<glyph unicode="g" horiz-adv-x="957" d="M85 528q0 104 9.5 204.5t42.5 180t98 127.5t175 48q77 0 137 -27t108 -88q2 0 2.5 1t2.5 1v100h175v-1083q0 -200 -94 -320.5t-298 -120.5q-104 0 -188.5 49.5t-128.5 140.5l145 85q25 -43 70.5 -76.5t107.5 -33.5q111 0 161 65t50 182v149h-5q-50 -66 -114.5 -94.5 t-130.5 -28.5q-110 0 -175 47t-98 121.5t-42.5 171t-9.5 199.5zM265 536q0 -87 6.5 -156t28 -117t58.5 -74t100 -26q65 0 105 29.5t62 78t29.5 110.5t7.5 129q0 62 -1 134.5t-18.5 133t-58.5 100.5t-120 40q-70 0 -109.5 -30t-59 -82t-25 -121.5t-5.5 -148.5z" />
<glyph unicode="h" horiz-adv-x="950" d="M102 0v1576h176v-623h6q46 62 113 97t146 35q64 0 120 -21.5t96 -64t64 -102t24 -137.5v-760h-176v702q0 97 -49 153.5t-146 56.5q-91 0 -145.5 -56.5t-54.5 -159.5v-696h-174z" />
<glyph unicode="i" horiz-adv-x="427" d="M126 0v1075h176v-1075h-176zM126 1336v174h176v-174h-176z" />
<glyph unicode="j" horiz-adv-x="455" d="M-26 -282q4 0 21.5 -1t19.5 1q67 2 96.5 44.5t29.5 117.5v1195h176v-1234q0 -60 -17.5 -112t-53 -91.5t-89 -61t-124.5 -21.5h-59v163zM141 1336v174h176v-174h-176z" />
<glyph unicode="k" d="M120 0v1576h176v-1021h4l382 520h202l-306 -410l366 -665h-195l-285 524l-168 -236v-288h-176z" />
<glyph unicode="l" horiz-adv-x="491" d="M128 250v1326h176v-1298q0 -61 24 -91.5t84 -30.5h37v-162h-47q-128 0 -202 54q-72 53 -72 194v8z" />
<glyph unicode="m" horiz-adv-x="1523" d="M112 0v1073h176v-116h5q91 128 250 128q89 0 156 -38t107 -98h2q62 72 132.5 104t164.5 32q64 0 119.5 -23.5t97 -66t64.5 -102.5t23 -133v-760h-176v638q0 58 -8.5 108.5t-29.5 86t-58 56t-93 20.5q-104 0 -149.5 -72.5t-45.5 -196.5v-640h-176v638q0 58 -9 107.5 t-30 86t-58.5 57t-93.5 20.5q-104 0 -150 -75.5t-46 -199.5v-634h-174z" />
<glyph unicode="n" horiz-adv-x="945" d="M100 0v1075h176v-120h6q46 63 113 96.5t146 33.5q64 0 120 -22.5t96 -65t64 -102.5t24 -135v-760h-176v702q0 97 -50 152t-148 55q-89 0 -143.5 -57t-54.5 -156v-696h-173z" />
<glyph unicode="o" horiz-adv-x="950" d="M87 530q0 102 9.5 195t33.5 152q44 97 133 154t219 57q129 0 202.5 -51t116.5 -128q15 -26 26 -68t17.5 -93.5t10 -106.5t3.5 -105q0 -30 -2.5 -73.5t-7.5 -91.5t-12 -91.5t-16 -68.5q-19 -63 -57 -107t-86.5 -70t-104.5 -37.5t-114 -11.5q-124 0 -203 52t-118 135 q-29 58 -39.5 154.5t-10.5 203.5zM261 510q0 -72 3 -134.5t20 -106.5q24 -58 70 -91t115 -33q66 0 117.5 33t75.5 104q11 31 15.5 103.5t4.5 161.5q0 76 -4.5 144.5t-17.5 107.5q-24 65 -71.5 98t-110.5 33q-62 0 -112.5 -31t-75.5 -91q-14 -42 -21.5 -118.5t-7.5 -179.5z " />
<glyph unicode="p" horiz-adv-x="937" d="M95 -435v1510h176v-100q2 0 2 -1t3 -1q47 61 108 88t138 27q106 0 169 -44.5t97.5 -119.5t45.5 -175t11 -208q0 -102 -12.5 -201t-49 -177t-103.5 -126t-176 -48q-135 0 -228 106h-5v-530h-176zM269 510q0 -58 5.5 -119t25 -112t59 -83.5t105.5 -32.5q67 0 106.5 30.5 t61 81t28.5 118t7 143.5q0 79 -7 148.5t-27 121.5t-59.5 83t-107.5 31q-78 0 -119 -39.5t-58.5 -100.5t-18.5 -134t-1 -136z" />
<glyph unicode="q" d="M93 528q0 104 12.5 204.5t47 180t98.5 127.5t170 48q76 0 137 -27t109 -88q2 0 2 1t2 1v100h176v-1514h-176v551h-4q-50 -66 -115 -94.5t-131 -28.5q-110 0 -175.5 47t-99.5 121.5t-43.5 171t-9.5 199.5zM276 536q0 -76 5 -143.5t26 -118t61.5 -81t107.5 -30.5 q65 0 104 32.5t59.5 83.5t27 112t6.5 119q0 62 -1 135.5t-18.5 135.5t-59 101.5t-118.5 39.5q-65 0 -104.5 -31t-61.5 -84t-28 -122.5t-6 -148.5z" />
<glyph unicode="r" horiz-adv-x="674" d="M128 0v1073h174v-129h6q50 85 113 114.5t150 29.5q63 -5 98 -24l-39 -190q-52 25 -106 25q-100 0 -161 -55.5t-61 -176.5v-667h-174z" />
<glyph unicode="s" horiz-adv-x="878" d="M58 213l143 83q35 -70 93 -109.5t145 -39.5q91 0 142 38.5t51 122.5q0 42 -15.5 68t-42.5 43.5t-64 29t-80 24.5q-78 19 -141 44.5t-108.5 61.5t-69.5 84.5t-24 117.5q0 143 93 225t257 82q145 0 226 -54.5t118 -152.5l-137 -84q-61 129 -205 129h-4q-98 0 -136 -44 t-38 -101q0 -37 19.5 -61t53 -39.5t78 -29t92.5 -26.5q76 -17 132 -42t94 -63t57 -90.5t19 -125.5q0 -145 -98 -232t-273 -87q-139 0 -233 58.5t-144 169.5z" />
<glyph unicode="t" horiz-adv-x="553" d="M35 932v143h119v275h176v-275h152v-143h-152v-636q0 -67 26 -101t85 -34h58v-161h-97q-124 0 -186 70.5t-62 174.5v687h-119z" />
<glyph unicode="u" horiz-adv-x="959" d="M100 313v760h176v-702q0 -98 53 -155t144 -57q89 0 143.5 58.5t54.5 157.5v698h174v-1073h-174v116h-6q-46 -65 -114.5 -97t-144.5 -32q-65 0 -121.5 23t-97 65.5t-64 101.5t-23.5 136z" />
<glyph unicode="v" horiz-adv-x="856" d="M13 1075h188q9 -29 26.5 -93t37 -135.5t36 -135.5t27.5 -92l102 -367h7q6 19 20 72t29 113t28.5 112t19.5 72q9 29 26.5 92.5t35 134t33 133.5t26.5 94h190q-17 -46 -42.5 -129.5t-57 -189t-64 -219.5t-64 -219t-57.5 -190t-42 -128h-177q-17 43 -43.5 128t-56.5 190 t-64 219t-64 219.5t-57 189t-43 129.5z" />
<glyph unicode="w" horiz-adv-x="1378" d="M17 1075h188q37 -143 70 -284.5t68 -284.5l52 -222h9l54 220q35 140 72 283t73 288h172q37 -139 70.5 -278t68.5 -279l59 -245h9l54 235q35 143 66 283.5t66 283.5h189l-293 -1075h-171q-35 130 -71.5 259.5t-67.5 262.5l-68 249h-4q-17 -70 -34.5 -140.5t-34.5 -137.5 l-131 -493h-174z" />
<glyph unicode="x" horiz-adv-x="854" d="M19 0l315 551l-299 524h197l198 -393l195 393h198l-299 -526l314 -549h-198l-210 412l-213 -412h-198z" />
<glyph unicode="y" horiz-adv-x="833" d="M2 1075h187l132 -431l102 -362h7l96 362l125 431h182l-386 -1290q-35 -116 -106.5 -170t-173.5 -54h-57v153h53q102 0 139 154l46 158z" />
<glyph unicode="z" horiz-adv-x="802" d="M63 0v154l482 764h-452v155h649v-151l-479 -757h479v-165h-679z" />
<glyph unicode="{" horiz-adv-x="533" d="M37 588v111q41 6 70.5 31.5t48 63t27 87t8.5 101.5v296q0 108 56.5 171.5t139.5 63.5h121v-117h-65q-29 0 -47.5 -17.5t-30 -44.5t-15.5 -61t-4 -66v-273q0 -70 -16.5 -121t-40.5 -86t-49 -53.5t-43 -24.5v-7q17 -6 42.5 -24.5t49.5 -53t40.5 -84.5t16.5 -117v-282 q0 -33 4 -66.5t15.5 -61t30 -44.5t47.5 -17h65v-116h-121q-83 0 -139.5 63t-56.5 169v303q0 115 -35.5 191t-118.5 86z" />
<glyph unicode="|" horiz-adv-x="448" d="M156 -352v1906h140v-1906h-140z" />
<glyph unicode="}" horiz-adv-x="533" d="M33 -108h67q28 0 46.5 17t30.5 44.5t16 61t4 66.5v282q0 66 16.5 116.5t40.5 85t49 53t43 24.5v7q-17 6 -42.5 24.5t-49.5 53.5t-40.5 86t-16.5 121v273q0 33 -3 66.5t-12.5 60.5t-29.5 44.5t-52 17.5h-67v112h121q91 0 144.5 -62.5t53.5 -167.5v-296q0 -52 8.5 -101.5 t26 -87t46.5 -62.5t71 -32v-111q-83 -10 -117.5 -86.5t-34.5 -190.5v-303q0 -106 -57 -169t-139 -63h-123v116z" />
<glyph unicode="~" d="M39 541q48 82 112 129t145 47q52 0 98.5 -19t92 -41.5t89 -41t86.5 -18.5q48 0 76 27t70 80l110 -76q-50 -83 -109.5 -135t-148.5 -52q-41 0 -86.5 19.5t-93.5 42.5t-95 42t-92 19q-50 0 -77 -24t-71 -74z" />
<glyph unicode="&#xa2;" d="M110 560q0 217 80.5 357t252.5 164v224h98v-220q108 -6 184 -58t118 -137l-144 -89q-48 106 -158 117v-766q56 8 95 40t60 71q38 -21 75 -39.5t74 -41.5q-42 -84 -120 -136t-184 -57v-243h-98v246q-97 12 -162.5 57.5t-102.5 119.5t-52.5 173t-15.5 218zM286 555 q0 -66 7 -130.5t24 -116t47.5 -90t78.5 -55.5v746q-50 -12 -80.5 -45t-46.5 -79.5t-23 -105.5t-7 -124z" />
<glyph unicode="&#xa3;" d="M67 0v145q62 100 105 201t52 232l4 69h-158v143h131q-10 54 -25 101t-28 89.5t-22.5 86t-9.5 93.5q0 76 24.5 141.5t71.5 114.5t114 77.5t150 28.5q137 0 246 -65t164 -220l-165 -63q-48 109 -107 145t-132 36q-66 0 -121 -51t-55 -149q0 -41 9.5 -82.5t23 -86t27 -93 t23.5 -103.5h276v-143h-263q0 -143 -29.5 -256t-92.5 -228h569v-163h-782z" />
<glyph unicode="&#xa5;" d="M46 1510h178q62 -171 124 -341t125 -342h9q63 172 124 342.5t121 340.5h180l-292 -756h240v-112h-282l-11 -32v-139h293v-113h-293v-358h-164v358h-292v113h292v136l-11 35h-281v112h237z" />
<glyph unicode="&#xa8;" horiz-adv-x="926" d="M195 1287v182h172v-182h-172zM558 1287v182h169v-182h-169z" />
<glyph unicode="&#xa9;" horiz-adv-x="1634" d="M110 740q0 163 50.5 303t142.5 242.5t222 159.5t291 57q159 0 290 -57t223 -159.5t143.5 -242.5t51.5 -303t-51.5 -300.5t-143.5 -239.5t-223 -159.5t-290 -57.5q-163 0 -293 57.5t-222 159.5t-141.5 240t-49.5 300zM241 740q0 -135 41 -250t116 -202t181.5 -135.5 t236.5 -48.5q133 0 240.5 48.5t181 135.5t114 202t40.5 250q0 134 -40.5 252t-115 203t-181 135.5t-239.5 50.5q-134 0 -240.5 -50.5t-180.5 -135.5t-114 -203t-40 -252zM543 538v382q0 118 72.5 198t204.5 80q94 0 165.5 -50t97.5 -141l-122 -48q-12 50 -48 82t-93 32 q-74 0 -110.5 -47t-36.5 -104v-388q0 -58 37 -106.5t110 -48.5q52 0 90.5 32t50.5 84l122 -46q-24 -91 -96.5 -141.5t-166.5 -50.5q-130 0 -203.5 78.5t-73.5 202.5z" />
<glyph unicode="&#xab;" horiz-adv-x="969" d="M95 504l255 403h168l-249 -403l249 -404h-168zM458 504l254 403h169l-247 -403l247 -404h-169z" />
<glyph unicode="&#xad;" horiz-adv-x="800" d="M110 482v154h594v-154h-594z" />
<glyph unicode="&#xae;" horiz-adv-x="1135" d="M130 1066q0 100 30.5 186t88 147.5t137.5 97.5t181 36q98 0 177 -36t136.5 -97.5t88 -147.5t30.5 -186q0 -99 -30.5 -184t-88 -147t-136.5 -97t-177 -35q-100 0 -180.5 35t-138 97t-88 146.5t-30.5 184.5zM219 1068q0 -82 25 -152.5t70.5 -122t110 -79.5t142.5 -28 q81 0 144.5 29t107 80.5t67 121t23.5 151.5q0 81 -23.5 151.5t-69 122.5t-108 82t-141.5 30q-83 0 -147 -30t-108.5 -82t-68.5 -123t-24 -151zM404 785v555h158q80 0 132.5 -36t52.5 -127q0 -106 -89 -150q29 -58 55.5 -119t50.5 -123h-102q-24 57 -48 114.5t-47 113.5h-72 v-228h-91zM495 1094h69q43 0 67 19.5t24 63.5q0 49 -27 64.5t-81 15.5h-52v-163z" />
<glyph unicode="&#xb4;" horiz-adv-x="920" d="M358 1241l152 377l165 -54l-213 -363z" />
<glyph unicode="&#xb8;" horiz-adv-x="934" d="M263 -410l30 80q41 -19 79 -23.5t69 -4.5q37 0 66 21.5t29 58.5q0 44 -33.5 70t-104.5 21l-40 33l65 217l89 -7l-48 -158q56 -4 93.5 -21.5t60 -43.5t31.5 -54.5t9 -54.5t-11 -56.5t-35 -55t-63 -41t-93 -16.5h-30.5t-48.5 3t-58 11t-56 21z" />
<glyph unicode="&#xbb;" horiz-adv-x="969" d="M98 100l248 404l-248 403h169l255 -403l-255 -404h-169zM460 100l250 404l-250 403h170l254 -403l-254 -404h-170z" />
<glyph unicode="&#x2c6;" horiz-adv-x="1065" d="M191 1270l306 317h108l290 -313l-81 -73l-271 216l-272 -219z" />
<glyph unicode="&#x2da;" horiz-adv-x="924" d="M306 1378q0 39 15 73t41.5 59t61 40.5t75.5 15.5q37 0 70.5 -15.5t58.5 -40.5t40.5 -59t15.5 -73q0 -76 -54 -129t-131 -53q-82 0 -137.5 53.5t-55.5 128.5zM398 1378q0 -39 29 -66t72 -27q39 0 67.5 27.5t28.5 65.5q0 41 -28.5 70t-67.5 29q-43 0 -72 -29t-29 -70z" />
<glyph unicode="&#x2dc;" horiz-adv-x="926" d="M116 1318q37 74 93 126t119 52q35 0 69.5 -14.5t67 -31.5t65 -31.5t63.5 -14.5q58 0 124 92l97 -61q-43 -89 -98.5 -133.5t-114.5 -44.5q-37 0 -71.5 14t-68.5 30.5t-65 30.5t-60 14q-33 0 -62 -19.5t-63 -62.5z" />
<glyph unicode="&#x401;" horiz-adv-x="986" d="M141 0v1510h801v-168h-621v-495h532v-163h-532v-508h621v-176h-801zM269 1624v182h172v-182h-172zM632 1624v182h169v-182h-169z" />
<glyph unicode="&#x402;" horiz-adv-x="1299" d="M11 1348v160h955v-160h-438v-451h6q77 60 160 92t157 32q187 0 270.5 -123t83.5 -390q0 -116 -17.5 -214.5t-62 -170t-120 -112t-191.5 -40.5h-37.5t-40.5 5v150h32q81 0 131 27t77 76t37 118.5t10 151.5q0 79 -8 143t-31 110.5t-65 71.5t-109 25q-85 0 -158.5 -37 t-123.5 -93v-719h-182v1348h-335z" />
<glyph unicode="&#x403;" horiz-adv-x="957" d="M141 0v1510h783v-168h-603v-1342h-180zM360 1663l315 256l118 -128l-361 -213z" />
<glyph unicode="&#x404;" horiz-adv-x="1017" d="M108 439v634q0 95 29.5 177t86 142t139 95t186.5 35q154 0 265.5 -76t153.5 -213l-171 -67q-21 83 -83.5 132.5t-164.5 49.5q-62 0 -111 -22.5t-82 -59.5t-50.5 -87t-17.5 -102v-230h491v-168h-491v-244q0 -54 17.5 -104.5t50.5 -88t82 -60.5t111 -23q98 0 162 50t86 134 l171 -63q-39 -143 -150.5 -218t-268.5 -75q-102 0 -184.5 33.5t-138.5 93.5t-87 142t-31 183z" />
<glyph unicode="&#x405;" horiz-adv-x="1036" d="M48 252l161 94q43 -77 117 -131t190 -54q139 0 200 71.5t61 179.5q0 61 -18.5 103.5t-53 73t-84.5 53.5t-111 42q-112 35 -192 73t-129.5 88t-72.5 114t-23 151q0 91 30.5 167t88 131t138 85.5t180.5 30.5q167 0 269 -60t152 -151l-154 -106q-43 77 -108.5 110t-166.5 33 q-127 0 -185.5 -69t-58.5 -171q0 -58 26 -100t71.5 -71.5t106.5 -52t133 -43.5q97 -31 164.5 -70t107 -91t58.5 -118.5t19 -151.5q0 -197 -118.5 -312t-331.5 -115q-176 0 -293 71.5t-173 195.5z" />
<glyph unicode="&#x406;" horiz-adv-x="470" d="M143 0v1510h182v-1510h-182z" />
<glyph unicode="&#x407;" horiz-adv-x="470" d="M-29 1676v182h172v-182h-172zM143 0v1510h182v-1510h-182zM334 1676v182h170v-182h-170z" />
<glyph unicode="&#x408;" horiz-adv-x="880" d="M-4 139l141 108q30 -37 78 -62.5t102 -25.5q100 0 168 54t68 185v1112h183v-1115q0 -110 -32.5 -187.5t-90.5 -126t-132.5 -71.5t-159.5 -23q-104 0 -187.5 40t-137.5 112z" />
<glyph unicode="&#x409;" horiz-adv-x="1675" d="M8 106q57 29 104 60t79.5 85.5t51 143.5t18.5 237v878h679v-631h258q117 0 200 -33.5t134 -92.5t74.5 -135.5t23.5 -163.5q0 -222 -115 -338t-326 -116h-431v1346h-328v-656q0 -193 -24 -320t-70 -207t-113 -124.5t-151 -73.5zM940 170h243q141 0 202 76.5t61 200.5 q0 52 -12.5 101t-42.5 87t-80 60t-126 22h-245v-547z" />
<glyph unicode="&#x40a;" horiz-adv-x="1703" d="M139 0v1510h182v-646h464v646h183v-646h246q117 0 201.5 -30.5t138 -85t79.5 -131t26 -170.5q0 -223 -114 -335t-325 -112h-435v696h-464v-696h-182zM968 167h244q141 0 201.5 73t60.5 201q0 52 -13 98.5t-43 81t-81.5 55t-127.5 20.5h-241v-529z" />
<glyph unicode="&#x40b;" horiz-adv-x="1321" d="M8 1350v160h965v-160h-445v-441l6 -4q83 70 161 93t148 23q169 0 260 -96t91 -265l2 -660h-183v567q0 58 -7 110t-30 90.5t-65.5 60t-109.5 21.5q-84 0 -153.5 -37t-119.5 -93v-719h-182v1350h-338z" />
<glyph unicode="&#x40c;" horiz-adv-x="1087" d="M135 0v1508h182v-657h161q35 0 71.5 6.5t72.5 29t66.5 67.5t51.5 119l122 435h172l-118 -442q-31 -110 -81 -185t-118 -100q91 -31 138.5 -107.5t76.5 -189.5l127 -484h-189l-114 454q-19 76 -49 122.5t-65 71.5t-73.5 32.5t-79.5 7.5h-172v-688h-182zM425 1663l315 256 l118 -128l-361 -213z" />
<glyph unicode="&#x40e;" horiz-adv-x="984" d="M29 1508h186l162 -512l122 -389h9q6 22 26.5 90.5t48 160t59 196t58.5 197.5t47.5 163.5t29.5 93.5h182q-95 -292 -187.5 -583t-185.5 -584q-35 -117 -71.5 -185.5t-78 -104.5t-85 -46.5t-90.5 -12.5h-124v155h101q46 0 84 32t69 114l19 70q-95 288 -190.5 572.5 t-190.5 572.5zM211 1815h149q3 -21 13.5 -45t30 -45t47 -34t59.5 -13q37 0 65 13t47.5 34t29.5 45t10 45h146q-5 -44 -21 -91.5t-49.5 -88t-89 -67.5t-138.5 -27q-85 0 -141 27t-91 67.5t-51 88t-16 91.5z" />
<glyph unicode="&#x40f;" horiz-adv-x="1150" d="M141 0v1510h180v-1340h508v1340h182v-1510h-338v-336h-184v336h-348z" />
<glyph unicode="&#x410;" horiz-adv-x="1078" d="M19 0l439 1510h163l440 -1510h-187l-95 343h-481l-93 -343h-186zM338 506h400l-110 391l-85 334h-9l-85 -332z" />
<glyph unicode="&#x411;" horiz-adv-x="1073" d="M137 0v1510h751v-166h-569v-463h245q118 0 202.5 -32.5t137.5 -88.5t79 -135.5t26 -172.5q0 -224 -114 -338t-324 -114h-434zM319 170h243q141 0 202 73.5t61 201.5q0 52 -13 101t-43.5 86t-81.5 58.5t-127 21.5h-241v-542z" />
<glyph unicode="&#x412;" horiz-adv-x="1098" d="M141 0v1510h435q208 0 309 -107t101 -289q0 -104 -39.5 -184.5t-153.5 -136.5v-8q58 -14 99.5 -48.5t67.5 -82t37.5 -104.5t11.5 -118q0 -213 -109.5 -322.5t-296.5 -109.5h-462zM321 176h263q72 0 120 21.5t76 58.5t39.5 86t11.5 105q0 113 -57 186t-194 73h-259v-530z M321 862h237q130 0 190 67t60 178q0 108 -60 173.5t-190 65.5h-237v-484z" />
<glyph unicode="&#x413;" horiz-adv-x="957" d="M141 0v1510h783v-168h-603v-1342h-180z" />
<glyph unicode="&#x414;" horiz-adv-x="1253" d="M29 141l91 18q50 33 80 85t47.5 136t25 208t11.5 302l18 620h803q0 -341 1 -677t1 -677h107v-462h-170v306h-847v-306h-168v447zM341 156h583v1197h-458l-17 -520q-8 -252 -24.5 -416.5t-83.5 -260.5z" />
<glyph unicode="&#x415;" horiz-adv-x="986" d="M141 0v1510h801v-168h-621v-495h532v-163h-532v-508h621v-176h-801z" />
<glyph unicode="&#x416;" horiz-adv-x="1699" d="M39 0l128 484q29 113 76 190.5t139 106.5q-81 25 -125 99.5t-75 185.5l-117 442h171l122 -435q19 -77 51 -120.5t67.5 -66t72.5 -29t72 -6.5h139v662h182v-662h139q33 0 70.5 6.5t73.5 29t66.5 66t50.5 120.5l121 435h174l-119 -442q-29 -110 -79.5 -185t-120.5 -100 q91 -31 138.5 -107.5t78.5 -189.5l126 -484h-189l-115 454q-19 76 -48 121.5t-63 70.5t-74.5 33.5t-81.5 8.5h-148v-688h-182v688h-150q-42 0 -80.5 -8.5t-73.5 -33.5t-64 -70.5t-49 -121.5l-115 -454h-189z" />
<glyph unicode="&#x417;" horiz-adv-x="1013" d="M26 317l171 60q19 -112 93.5 -168.5t175.5 -56.5q111 0 184 66t73 221q0 120 -55 196.5t-177 76.5h-128v158h128q110 0 166.5 71.5t56.5 183.5q0 122 -66 175t-170 53t-170.5 -61t-90.5 -157l-174 59q33 153 149 240.5t286 87.5q207 0 313 -96t106 -293q0 -41 -9 -90 t-29.5 -96.5t-54 -87t-81.5 -60.5v-9q60 -27 97.5 -67.5t57 -89.5t25.5 -100t6 -96q0 -205 -113.5 -327.5t-333.5 -122.5q-85 0 -159.5 21t-132.5 62.5t-94.5 102.5t-49.5 144z" />
<glyph unicode="&#x418;" horiz-adv-x="1219" d="M139 0v1510h180v-1145l9 -2l225 451l359 696h176v-1510h-183v1150h-6l-211 -419l-375 -731h-174z" />
<glyph unicode="&#x419;" horiz-adv-x="1219" d="M139 0v1510h180v-1145l9 -2l225 451l359 696h176v-1510h-183v1150h-6l-211 -419l-375 -731h-174zM311 1875h149q2 -21 13 -45t31 -44.5t47 -34t59 -13.5q37 0 65.5 13.5t47.5 34t29 44.5t10 45h145q-4 -43 -20.5 -91t-50 -87.5t-89 -67t-137.5 -27.5q-85 0 -141.5 27.5 t-91 67t-50.5 88t-16 90.5z" />
<glyph unicode="&#x41a;" horiz-adv-x="1087" d="M135 0v1508h182v-657h161q35 0 71.5 6.5t72.5 29t66.5 67.5t51.5 119l122 435h172l-118 -442q-31 -110 -81 -185t-118 -100q91 -31 138.5 -107.5t76.5 -189.5l127 -484h-189l-114 454q-19 76 -49 122.5t-65 71.5t-73.5 32.5t-79.5 7.5h-172v-688h-182z" />
<glyph unicode="&#x41b;" horiz-adv-x="1178" d="M0 106q56 29 102.5 60t79.5 85.5t51.5 143.5t18.5 235v880h782v-1510h-181v1346h-432v-656q0 -195 -23 -322t-67.5 -207t-111.5 -123.5t-156 -72.5q-17 35 -31.5 70t-31.5 71z" />
<glyph unicode="&#x41c;" horiz-adv-x="1423" d="M141 0v1510h182l250 -570l144 -350h6l147 354l246 566h180v-1510h-180v1055l-9 -2l-119 -291l-209 -466h-124l-210 475l-115 284l-9 -2v-1053h-180z" />
<glyph unicode="&#x41d;" horiz-adv-x="1154" d="M141 0v1510h180v-663h510v663h182v-1510h-182v688h-510v-688h-180z" />
<glyph unicode="&#x41e;" horiz-adv-x="1078" d="M95 466v607q0 76 24 156t76 145t137 106.5t206 41.5q116 0 199 -39t138 -103.5t81 -144.5t26 -162v-632q0 -104 -33 -187.5t-91.5 -143.5t-140 -91.5t-179.5 -31.5q-119 0 -203.5 39t-138 105t-77.5 153t-24 182zM273 1066l3 -597q0 -65 14 -123t46.5 -99.5t83.5 -67 t123 -25.5q52 0 98.5 18.5t80.5 53.5t54.5 84.5t20.5 112.5v648q0 35 -12 82.5t-41.5 90.5t-79 74.5t-128.5 31.5q-78 0 -128 -29t-80 -71.5t-42.5 -92.5t-12.5 -91z" />
<glyph unicode="&#x41f;" horiz-adv-x="1139" d="M141 0v1510h860v-1510h-183v1353h-497v-1353h-180z" />
<glyph unicode="&#x420;" horiz-adv-x="1050" d="M141 0v1510h430q211 0 325.5 -111.5t114.5 -341.5q0 -87 -23.5 -168t-74.5 -143t-134 -100.5t-199 -38.5h-259v-607h-180zM321 777h248q77 0 126 24t80 63t42.5 90t11.5 105q0 130 -60.5 206.5t-201.5 76.5h-246v-565z" />
<glyph unicode="&#x421;" horiz-adv-x="1017" d="M108 439v634q0 95 29.5 177t86 142t139 95t186.5 35q154 0 265.5 -76t153.5 -213l-171 -67q-21 83 -83.5 132.5t-164.5 49.5q-62 0 -111 -22.5t-82 -59.5t-50.5 -87t-17.5 -102v-642q0 -54 17.5 -104.5t50.5 -88t82 -60.5t111 -23q98 0 162 50t86 134l171 -63 q-39 -143 -150.5 -218t-268.5 -75q-102 0 -184.5 33.5t-138.5 93.5t-87 142t-31 183z" />
<glyph unicode="&#x422;" horiz-adv-x="874" d="M2 1346v164h870v-164h-344v-1346h-180v1346h-346z" />
<glyph unicode="&#x423;" horiz-adv-x="984" d="M29 1508h186l162 -512l122 -389h9q6 22 26.5 90.5t48 160t59 196t58.5 197.5t47.5 163.5t29.5 93.5h182q-95 -292 -187.5 -583t-185.5 -584q-35 -117 -71.5 -185.5t-78 -104.5t-85 -46.5t-90.5 -12.5h-124v155h101q46 0 84 32t69 114l19 70q-95 288 -190.5 572.5 t-190.5 572.5z" />
<glyph unicode="&#x424;" horiz-adv-x="1330" d="M93 783q0 305 115 467.5t365 184.5h3v75h180v-75h8q255 -21 367.5 -184t112.5 -468q0 -163 -26.5 -279.5t-83.5 -196t-148 -124t-222 -61.5h-8v-122h-180v122h-3q-132 8 -223 52.5t-149 126t-83 201t-25 281.5zM267 785q0 -147 22 -242.5t61 -153t95 -82.5t128 -29v1005 q-155 -7 -230.5 -127t-75.5 -371zM760 278q72 4 129.5 28t98.5 80.5t64 153t23 245.5q0 255 -80.5 373t-234.5 125v-1005z" />
<glyph unicode="&#x425;" horiz-adv-x="976" d="M8 0l385 783l-358 727h197l257 -561l255 561h198l-360 -727l386 -783h-195l-284 613l-282 -613h-199z" />
<glyph unicode="&#x426;" horiz-adv-x="1176" d="M141 0v1510h180v-1340h506v1340h180v-1343h120v-471h-170v304h-816z" />
<glyph unicode="&#x427;" horiz-adv-x="1108" d="M102 1057v453h178v-442q0 -89 12 -148.5t41.5 -97t78 -52t122.5 -14.5q50 0 120.5 17t130.5 60v677h183v-1510h-183v677q-66 -37 -143.5 -55.5t-148.5 -18.5q-193 0 -292 106.5t-99 347.5z" />
<glyph unicode="&#x428;" horiz-adv-x="1645" d="M135 0v1510h180v-1338h416v1338h181v-1338h418v1338h183v-1510h-1378z" />
<glyph unicode="&#x429;" horiz-adv-x="1686" d="M132 0v1510h181v-1340h416v1340h180v-1340h419v1340h182v-1343h120v-471h-169v304h-1329z" />
<glyph unicode="&#x42a;" horiz-adv-x="1321" d="M26 1344v166h567v-629h248q117 0 200.5 -32.5t137.5 -88.5t79 -135.5t25 -172.5q0 -224 -114 -338t-324 -114h-433v1344h-386zM593 170h245q141 0 201.5 73.5t60.5 201.5q0 52 -12.5 101t-43.5 86t-81.5 58.5t-127.5 21.5h-242v-542z" />
<glyph unicode="&#x42b;" horiz-adv-x="1469" d="M147 0v1510h181v-631h248q117 0 200.5 -31.5t137.5 -88.5t79.5 -135.5t25.5 -171.5q0 -224 -114.5 -338t-324.5 -114h-433zM328 170h245q141 0 201.5 73.5t60.5 201.5q0 52 -12.5 100t-43 86t-81.5 59.5t-127 21.5h-243v-542zM1152 0v1510h184v-1510h-184z" />
<glyph unicode="&#x42c;" horiz-adv-x="1048" d="M137 0v1510h182v-629h245q118 0 202.5 -32.5t137.5 -88.5t79 -135.5t26 -172.5q0 -224 -114 -338t-324 -114h-434zM319 170h243q141 0 202 73.5t61 201.5q0 52 -13 101t-43.5 86t-81.5 58.5t-127 21.5h-241v-542z" />
<glyph unicode="&#x42d;" horiz-adv-x="1021" d="M46 296l178 60q19 -97 80 -149.5t158 -52.5q76 0 126 27.5t79 72t41.5 98.5t12.5 108v232h-437v168h437v188q0 61 -13.5 116.5t-42.5 97t-76.5 66.5t-119.5 25q-98 0 -161 -57t-86 -148l-174 61q37 144 146.5 229.5t281.5 85.5q128 0 210 -41t130 -108.5t66.5 -154.5 t18.5 -178v-595q0 -99 -27 -184t-82.5 -147t-137 -96.5t-192.5 -34.5q-169 0 -274 81t-142 230z" />
<glyph unicode="&#x42e;" horiz-adv-x="1427" d="M124 0v1510h180v-663h185v245q0 76 21.5 153t71.5 139t130.5 100t196.5 38t196 -36t130 -97t72.5 -138t22.5 -159v-673q0 -104 -30 -184.5t-85 -136t-133.5 -83.5t-172.5 -28q-117 0 -197 35.5t-130 97.5t-71.5 146t-21.5 179v243h-185v-688h-180zM667 1090l2 -643 q0 -132 55 -212.5t190 -80.5q97 0 164.5 61t67.5 187v688q0 35 -8.5 79.5t-34.5 84.5t-72.5 68t-121.5 28q-72 0 -118.5 -24.5t-73.5 -64t-38.5 -85t-11.5 -86.5z" />
<glyph unicode="&#x42f;" horiz-adv-x="1117" d="M60 0l110 454q24 97 61.5 163.5t114.5 103.5q-67 17 -111 54t-70 83.5t-35.5 100.5t-9.5 109q0 100 27 181t79 140t128 90t176 31h452v-1510h-181v671h-180q-37 0 -76 -10t-76 -36t-67.5 -73.5t-49.5 -124.5l-100 -427h-192zM302 1068q0 -124 70.5 -181.5t187.5 -57.5 h241v517h-243q-133 0 -194.5 -75.5t-61.5 -202.5z" />
<glyph unicode="&#x430;" horiz-adv-x="924" d="M78 302q0 143 89.5 237.5t284.5 94.5h197v132q0 75 -49 115.5t-144 40.5q-63 0 -118.5 -22.5t-78.5 -79.5q-35 20 -69 40.5t-68 42.5q43 89 133.5 137t200.5 48q76 0 143.5 -16.5t118 -53t80 -98.5t29.5 -156v-764h-178v78l-9 5q-37 -48 -103 -72t-150 -24 q-79 0 -137.5 25t-96 68.5t-56.5 100.5t-19 121zM245 313q0 -72 48 -116.5t146 -44.5q91 0 150.5 41t59.5 143v148h-210q-85 0 -139.5 -40t-54.5 -131z" />
<glyph unicode="&#x431;" horiz-adv-x="950" d="M91 582q0 35 2 79.5t3.5 84t3.5 69.5t4 38q8 131 31.5 226t62 165.5t97.5 119.5t140 84q72 33 146 60t185 70l59 -128q-54 -26 -93.5 -43t-71.5 -30.5t-62.5 -25t-67.5 -29.5q-132 -63 -192 -153t-69 -233q4 0 4 -2q50 60 116.5 86t122.5 26q112 0 182 -43.5t112 -121.5 q35 -65 45.5 -170.5t10.5 -215.5q0 -85 -6.5 -146t-28.5 -123q-21 -70 -60.5 -115.5t-87 -74t-102.5 -40t-111 -11.5q-124 0 -203 52t-118 133q-28 58 -42 156.5t-12 255.5zM267 491q0 -72 3 -126t20 -98q25 -58 69.5 -90t120.5 -32q67 0 117 37t74 108q11 31 14 89t3 133 q0 33 -1 69t-4.5 70.5t-7.5 61.5t-8 45q-25 60 -65.5 95t-119.5 35q-126 0 -176 -105q-24 -47 -31.5 -122t-7.5 -170z" />
<glyph unicode="&#x432;" horiz-adv-x="924" d="M112 0v1075h370q180 0 266.5 -81.5t86.5 -214.5q0 -70 -29 -125t-98 -92h2q81 -31 113 -95.5t32 -145.5q0 -89 -29 -150t-81.5 -98.5t-122 -55t-149.5 -17.5h-361zM290 163h183q97 0 151.5 41t54.5 124q0 70 -43 114.5t-149 44.5h-197v-324zM290 628h176q98 0 146 29 t48 120q0 67 -45.5 105t-145.5 38h-179v-292z" />
<glyph unicode="&#x433;" horiz-adv-x="806" d="M112 0v1075h669v-155h-493v-920h-176z" />
<glyph unicode="&#x434;" horiz-adv-x="1069" d="M37 135l85 19q35 26 55 57.5t32.5 81.5t18.5 127t17 195l20 460h667v-921h95v-434h-167v280h-655v-280h-168v415zM334 154h422v766h-331l-15 -310q-6 -83 -10.5 -151t-12.5 -123.5t-19.5 -100t-33.5 -81.5z" />
<glyph unicode="&#x435;" horiz-adv-x="920" d="M81 536q0 102 15.5 200.5t58 177t117 126.5t188.5 48q182 0 278.5 -116.5t96.5 -320.5v-167h-578q0 -72 8 -134t32 -107.5t67.5 -71.5t113.5 -26q58 0 107 37t80 87l143 -76q-44 -95 -129.5 -150.5t-194.5 -55.5q-108 0 -184 30.5t-125 96.5t-71.5 170.5t-22.5 251.5z M261 625h401q0 148 -51 222.5t-149 74.5q-112 0 -154.5 -80t-46.5 -217z" />
<glyph unicode="&#x436;" horiz-adv-x="1386" d="M29 0q24 87 49.5 174t49.5 174q25 80 58 137.5t107 74.5q-59 17 -94.5 70.5t-59.5 131.5q-21 79 -44 155.5t-47 155.5h171l89 -309q15 -54 38 -84.5t51 -46.5t61 -21t68 -5h77v466h176v-466h56q35 0 71 3t68.5 16.5t58.5 46.5t44 91l89 309h172l-91 -311 q-25 -78 -61 -131t-94 -71q74 -17 107.5 -75t57.5 -137l100 -348h-176q-19 74 -38.5 148t-42.5 148q-17 60 -38.5 93.5t-49.5 50t-64 20.5t-80 4h-89v-464h-176v464h-85q-43 0 -78.5 -5t-64.5 -21.5t-52 -50t-41 -91.5l-77 -296h-176z" />
<glyph unicode="&#x437;" horiz-adv-x="863" d="M31 191l143 76q21 -60 80 -90t139 -30q87 0 144.5 42.5t57.5 131.5q0 77 -45.5 120t-122.5 43h-129v148h132q81 0 117.5 39t36.5 108q0 65 -44.5 104t-127.5 39q-76 0 -133 -27t-84 -89l-137 80q40 98 134 148.5t214 50.5q184 0 269 -80.5t85 -211.5q0 -65 -29 -132.5 t-103 -98.5q89 -44 117 -103t28 -142q0 -156 -102 -242t-278 -86q-130 0 -225.5 47t-136.5 155z" />
<glyph unicode="&#x438;" horiz-adv-x="1078" d="M130 0v1073h181v-767h4l161 267l303 500h170v-1073h-183v747h-8l-168 -274l-292 -473h-168z" />
<glyph unicode="&#x439;" horiz-adv-x="1078" d="M130 0v1073h181v-767h4l161 267l303 500h170v-1073h-183v747h-8l-168 -274l-292 -473h-168zM243 1518h150q2 -21 13 -45.5t30.5 -45t46.5 -33.5t60 -13q37 0 65 13t47.5 33.5t29 44.5t9.5 46h147q-5 -44 -21.5 -92t-50 -88t-89 -67t-137.5 -27q-85 0 -141 27t-91 67 t-51.5 88t-16.5 92z" />
<glyph unicode="&#x43a;" horiz-adv-x="905" d="M93 0v1075h176v-468h120q31 0 61 5t57 21t49 47.5t37 83.5l89 311h171l-91 -313q-24 -78 -59.5 -131t-95.5 -71q75 -17 108.5 -73.5t57.5 -136.5l99 -350h-176l-79 298q-31 104 -82 135t-123 31h-143v-464h-176z" />
<glyph unicode="&#x43b;" horiz-adv-x="974" d="M11 106q56 29 93 57t58.5 76.5t30 130.5t8.5 218v487h661v-1075h-178v920h-317v-421q0 -134 -18.5 -225.5t-54 -152.5t-92 -97t-130.5 -57q-15 35 -30.5 69t-30.5 70z" />
<glyph unicode="&#x43c;" horiz-adv-x="1202" d="M116 0v1075h170l176 -341q37 -75 72 -145.5t73 -141.5h3l142 287l174 341h170v-1075h-178v706h-2q-21 -46 -42 -91.5t-45 -88.5q-44 -83 -84.5 -162.5t-82.5 -162.5h-113l-143 277l-110 218h-3v-696h-177z" />
<glyph unicode="&#x43d;" horiz-adv-x="969" d="M112 0v1075h178v-456h389v456h179v-1075h-179v473h-389v-473h-178z" />
<glyph unicode="&#x43e;" horiz-adv-x="950" d="M87 530q0 102 9.5 195t33.5 152q44 97 133 154t219 57q129 0 202.5 -51t116.5 -128q15 -26 26 -68t17.5 -93.5t10 -106.5t3.5 -105q0 -30 -2.5 -73.5t-7.5 -91.5t-12 -91.5t-16 -68.5q-19 -63 -57 -107t-86.5 -70t-104.5 -37.5t-114 -11.5q-124 0 -203 52t-118 135 q-29 58 -39.5 154.5t-10.5 203.5zM261 510q0 -72 3 -134.5t20 -106.5q24 -58 70 -91t115 -33q66 0 117.5 33t75.5 104q11 31 15.5 103.5t4.5 161.5q0 76 -4.5 144.5t-17.5 107.5q-24 65 -71.5 98t-110.5 33q-62 0 -112.5 -31t-75.5 -91q-14 -42 -21.5 -118.5t-7.5 -179.5z " />
<glyph unicode="&#x43f;" horiz-adv-x="993" d="M126 0v1075h744v-1075h-176v918h-392v-918h-176z" />
<glyph unicode="&#x440;" horiz-adv-x="937" d="M95 -435v1510h176v-100q2 0 2 -1t3 -1q47 61 108 88t138 27q106 0 169 -44.5t97.5 -119.5t45.5 -175t11 -208q0 -102 -12.5 -201t-49 -177t-103.5 -126t-176 -48q-135 0 -228 106h-5v-530h-176zM269 510q0 -58 5.5 -119t25 -112t59 -83.5t105.5 -32.5q67 0 106.5 30.5 t61 81t28.5 118t7 143.5q0 79 -7 148.5t-27 121.5t-59.5 83t-107.5 31q-78 0 -119 -39.5t-58.5 -100.5t-18.5 -134t-1 -136z" />
<glyph unicode="&#x441;" horiz-adv-x="835" d="M67 560q0 240 98 384t306 144q117 0 201 -53t127 -145l-144 -89q-24 57 -71.5 88t-110.5 31q-72 0 -117 -28t-70 -77t-34 -115t-9 -145q0 -78 9 -150.5t34 -129t69.5 -90t115.5 -33.5q64 0 111 33.5t71 77.5q37 -21 74 -39.5t74 -41.5q-43 -91 -128 -143t-202 -52 q-122 0 -200 41.5t-123.5 116t-63 181t-17.5 234.5z" />
<glyph unicode="&#x442;" horiz-adv-x="758" d="M11 920v153h738v-153h-285v-920h-174v920h-279z" />
<glyph unicode="&#x443;" horiz-adv-x="833" d="M2 1075h187l132 -431l102 -362h7l96 362l125 431h182l-386 -1290q-35 -116 -106.5 -170t-173.5 -54h-57v153h53q102 0 139 154l46 158z" />
<glyph unicode="&#x444;" horiz-adv-x="1152" d="M81 530q0 100 7 185.5t38 152.5q44 102 138 159.5t225 62.5v443h173l3 -443q130 -5 219 -56.5t131 -145.5q33 -70 43 -161t10 -199q0 -118 -13 -213.5t-59 -165.5q-49 -78 -135 -119t-196 -49l-3 -406h-173v406q-118 6 -206 47.5t-134 114.5q-43 70 -55.5 168.5 t-12.5 218.5zM254 510q0 -74 5.5 -141t22.5 -106q26 -54 80.5 -85t124.5 -35l2 779q-70 -4 -126.5 -34t-80.5 -89q-17 -43 -22.5 -120.5t-5.5 -168.5zM662 143q73 4 130 38t80 103q17 41 20 100t3 126q0 91 -3.5 166.5t-21.5 118.5q-24 63 -80 93t-128 34v-779z" />
<glyph unicode="&#x445;" horiz-adv-x="854" d="M19 0l315 551l-299 524h197l198 -393l195 393h198l-299 -526l314 -549h-198l-210 412l-213 -412h-198z" />
<glyph unicode="&#x446;" horiz-adv-x="1011" d="M116 0v1075h177v-912h389v912h176v-912h117v-443h-167v280h-692z" />
<glyph unicode="&#x447;" horiz-adv-x="909" d="M65 754v321h176v-346q0 -99 43.5 -139.5t125.5 -40.5q42 0 107 16.5t119 53.5v456h174v-1075h-176v462h-2q-63 -37 -132.5 -56t-132.5 -19q-152 0 -227 85.5t-75 281.5z" />
<glyph unicode="&#x448;" horiz-adv-x="1447" d="M118 0v1075h175v-910h343v910h174v-910h348v910h172v-1075h-1212z" />
<glyph unicode="&#x449;" horiz-adv-x="1502" d="M118 0v1075h172v-912h344v912h176v-912h345v912h173v-912h118v-426h-166v263h-1162z" />
<glyph unicode="&#x44a;" horiz-adv-x="1119" d="M26 920v155h492v-413h199q101 0 171.5 -26t114 -70t62 -103t18.5 -127q0 -154 -83.5 -245t-278.5 -91h-383v920h-312zM518 163h196q109 0 150 51t41 120q0 33 -8.5 62t-31 52t-60 37t-93.5 14l-194 2v-338z" />
<glyph unicode="&#x44b;" horiz-adv-x="1258" d="M108 0v1075h180v-413h199q101 0 170.5 -26t113 -70t62 -103t18.5 -127q0 -154 -82.5 -245t-277.5 -91h-383zM286 163h196q108 0 149.5 51t41.5 120q0 33 -9 62t-30 52t-59.5 37t-94.5 14l-194 2v-338zM959 0v1075h181v-1075h-181z" />
<glyph unicode="&#x44c;" horiz-adv-x="882" d="M112 0v1075h181v-413h198q102 0 171 -26t112.5 -70t62 -103t18.5 -127q0 -154 -82.5 -245t-277.5 -91h-383zM290 163h197q108 0 149 51t41 120q0 33 -8.5 62t-30 52t-59.5 37t-95 14l-194 2v-338z" />
<glyph unicode="&#x44d;" horiz-adv-x="835" d="M17 182l148 81q25 -44 74 -77.5t115 -33.5q63 0 104 26.5t67 72t38.5 106t16.5 127.5h-383v141h383q-4 65 -15.5 119.5t-37.5 93.5t-68 60.5t-107 21.5q-56 0 -108.5 -31t-76.5 -88l-143 89q44 92 135 145t201 53q104 0 180.5 -39.5t125 -110t71.5 -168t21 -217.5 q-2 -122 -21.5 -224.5t-66.5 -178.5t-126.5 -119.5t-197.5 -43.5t-202 52t-127 143z" />
<glyph unicode="&#x44e;" horiz-adv-x="1272" d="M132 0v1073h183v-452h128q0 76 6 145q15 141 114 230t253 89q148 0 242 -77.5t112 -222.5q4 -39 6.5 -81t2.5 -83l-2 -254q-7 -185 -103.5 -282.5t-261.5 -97.5q-156 0 -251 82.5t-112 226.5q-6 74 -6 153v22h-128v-471h-183zM613 464q0 -39 2 -77.5t6 -78.5 q11 -70 62 -115.5t131 -45.5q91 0 140 61t49 155v319q0 47 -8.5 91.5t-29.5 78.5t-58 53t-93 19q-80 0 -131 -46.5t-62 -115.5q-4 -26 -6 -52t-2 -55v-191z" />
<glyph unicode="&#x44f;" horiz-adv-x="937" d="M56 0l79 313q14 58 44 108t82 72q-91 31 -130.5 101.5t-39.5 152.5q0 143 87 235.5t247 92.5h408v-1075h-175v447h-176q-64 -2 -109 -35t-69 -130l-68 -282h-180zM267 747q0 -76 48 -115t134 -39h209v325h-204q-87 0 -137 -44t-50 -127z" />
<glyph unicode="&#x451;" horiz-adv-x="920" d="M81 536q0 102 15.5 200.5t58 177t117 126.5t188.5 48q182 0 278.5 -116.5t96.5 -320.5v-167h-578q0 -72 8 -134t32 -107.5t67.5 -71.5t113.5 -26q58 0 107 37t80 87l143 -76q-44 -95 -129.5 -150.5t-194.5 -55.5q-108 0 -184 30.5t-125 96.5t-71.5 170.5t-22.5 251.5z M201 1303v182h172v-182h-172zM261 625h401q0 148 -51 222.5t-149 74.5q-112 0 -154.5 -80t-46.5 -217zM564 1303v182h170v-182h-170z" />
<glyph unicode="&#x452;" horiz-adv-x="1013" d="M13 1244v139h117v193h174v-193h408v-139h-408v-302h7q93 131 265 131q101 0 183 -51.5t111 -149.5q25 -56 32 -150t7 -196q0 -89 -11.5 -181.5t-39.5 -155.5q-40 -89 -119 -147.5t-221 -58.5q-14 0 -22.5 1t-26.5 3v154q10 -2 21 -2h22q67 0 110 28t68 78 q24 45 32.5 113.5t8.5 145.5q0 110 -6 189.5t-39 129.5q-25 37 -63.5 58.5t-100.5 21.5q-65 0 -107 -27t-67 -70.5t-34.5 -98t-9.5 -106.5v-601h-174v1244h-117z" />
<glyph unicode="&#x453;" horiz-adv-x="806" d="M112 0v1075h669v-155h-493v-920h-176zM341 1241l152 377l165 -54l-213 -363z" />
<glyph unicode="&#x454;" horiz-adv-x="835" d="M67 560q0 240 98 384t306 144q117 0 201 -53t127 -145l-144 -89q-24 57 -71.5 88t-110.5 31q-65 0 -107.5 -21.5t-68.5 -60.5t-38 -93.5t-14 -119.5h383v-141h-383q2 -66 15 -127t39 -106.5t67.5 -72t104.5 -26.5q64 0 111 33.5t71 77.5q37 -21 74 -39.5t74 -41.5 q-43 -91 -128 -143t-202 -52q-122 0 -200 41.5t-123.5 116t-63 181t-17.5 234.5z" />
<glyph unicode="&#x455;" horiz-adv-x="878" d="M58 213l143 83q35 -70 93 -109.5t145 -39.5q91 0 142 38.5t51 122.5q0 42 -15.5 68t-42.5 43.5t-64 29t-80 24.5q-78 19 -141 44.5t-108.5 61.5t-69.5 84.5t-24 117.5q0 143 93 225t257 82q145 0 226 -54.5t118 -152.5l-137 -84q-62 131 -209 129q-98 0 -136 -44 t-38 -101q0 -37 19.5 -61t53 -39.5t78 -29t92.5 -26.5q76 -17 132 -42t94 -63t57 -90.5t19 -125.5q0 -145 -98 -232t-273 -87q-139 0 -233 58.5t-144 169.5z" />
<glyph unicode="&#x456;" horiz-adv-x="427" d="M126 0v1075h176v-1075h-176zM126 1336v174h176v-174h-176z" />
<glyph unicode="&#x457;" horiz-adv-x="427" d="M-52 1287v182h172v-182h-172zM126 0v1075h176v-1075h-176zM311 1287v182h169v-182h-169z" />
<glyph unicode="&#x458;" horiz-adv-x="455" d="M-26 -282q4 0 21.5 -1t19.5 1q67 2 96.5 44.5t29.5 117.5v1195h176v-1234q0 -60 -17.5 -112t-53 -91.5t-89 -61t-124.5 -21.5h-59v163zM141 1336v174h176v-174h-176z" />
<glyph unicode="&#x459;" horiz-adv-x="1397" d="M24 106q52 26 88.5 53.5t59.5 69.5t34 108.5t11 172.5v565h578v-413h197q102 0 171.5 -26t113 -70t62 -103t18.5 -127q0 -152 -83 -244t-278 -92h-381v920h-233v-419q0 -134 -18 -225.5t-55.5 -152t-93.5 -96t-130 -60.5zM793 165h195q108 0 149.5 48.5t41.5 120.5 q0 33 -8.5 62t-30.5 52t-60 37t-94 14h-193v-334z" />
<glyph unicode="&#x45a;" horiz-adv-x="1434" d="M120 0v1075h178v-422h349v422h180v-422h198q102 0 171.5 -25t113 -68.5t62 -100.5t18.5 -123q0 -154 -83 -245t-278 -91h-382v491h-349v-491h-178zM825 163h196q108 0 149.5 51t41.5 120q0 31 -9 59t-31 48.5t-59.5 34t-93.5 13.5h-194v-326z" />
<glyph unicode="&#x45b;" horiz-adv-x="950" d="M0 1266v134h102v176h176v-176h395v-134h-395v-313h6q46 62 113 97t146 35q64 0 120 -21.5t96 -64t64 -102t24 -137.5v-760h-176v702q0 97 -49 153.5t-146 56.5q-91 0 -145.5 -56.5t-54.5 -159.5v-696h-174v1266h-102z" />
<glyph unicode="&#x45c;" horiz-adv-x="905" d="M93 0v1075h176v-468h120q31 0 61 5t57 21t49 47.5t37 83.5l89 311h171l-91 -313q-24 -78 -59.5 -131t-95.5 -71q75 -17 108.5 -73.5t57.5 -136.5l99 -350h-176l-79 298q-31 104 -82 135t-123 31h-143v-464h-176zM356 1241l152 377l165 -54l-213 -363z" />
<glyph unicode="&#x45e;" horiz-adv-x="833" d="M2 1075h187l132 -431l102 -362h7l96 362l125 431h182l-386 -1290q-35 -116 -106.5 -170t-173.5 -54h-57v153h53q102 0 139 154l46 158zM126 1518h150q2 -21 13 -45.5t30 -45t46.5 -33.5t59.5 -13q37 0 65 13t48 33.5t30 44.5t10 46h145q-4 -44 -20.5 -92t-50 -88t-89 -67 t-138.5 -27q-85 0 -141 27t-90.5 67t-51 88t-16.5 92z" />
<glyph unicode="&#x45f;" horiz-adv-x="972" d="M116 0v1075h177v-910h391v910h174v-1075h-280v-293h-183v293h-279z" />
<glyph unicode="&#x490;" horiz-adv-x="957" d="M141 0v1510h617l-2 255h166l2 -423h-603v-1342h-180z" />
<glyph unicode="&#x491;" horiz-adv-x="806" d="M112 0v1075h509v232h160v-387h-491v-920h-178z" />
<glyph unicode="&#x4d9;" horiz-adv-x="909" d="M72 425v168h579q0 72 -8.5 133.5t-32.5 107t-67.5 72t-112.5 26.5q-58 0 -107.5 -37t-79.5 -87l-143 76q43 95 135.5 150.5t201.5 55.5q204 0 297 -127.5t93 -421.5q0 -102 -16 -201t-58.5 -177t-116.5 -126t-189 -48q-182 0 -278.5 116.5t-96.5 319.5zM245 452 q0 -148 51.5 -223t148.5 -75q113 0 155 80.5t47 217.5h-402z" />
<glyph unicode="&#x2000;" horiz-adv-x="959" />
<glyph unicode="&#x2001;" horiz-adv-x="1919" />
<glyph unicode="&#x2002;" horiz-adv-x="959" />
<glyph unicode="&#x2003;" horiz-adv-x="1919" />
<glyph unicode="&#x2004;" horiz-adv-x="639" />
<glyph unicode="&#x2005;" horiz-adv-x="479" />
<glyph unicode="&#x2006;" horiz-adv-x="319" />
<glyph unicode="&#x2007;" horiz-adv-x="319" />
<glyph unicode="&#x2008;" horiz-adv-x="239" />
<glyph unicode="&#x2009;" horiz-adv-x="383" />
<glyph unicode="&#x200a;" horiz-adv-x="106" />
<glyph unicode="&#x2010;" horiz-adv-x="800" d="M110 482v154h594v-154h-594z" />
<glyph unicode="&#x2011;" horiz-adv-x="800" d="M110 482v154h594v-154h-594z" />
<glyph unicode="&#x2012;" horiz-adv-x="800" d="M110 482v154h594v-154h-594z" />
<glyph unicode="&#x2013;" horiz-adv-x="1085" d="M43 499v166h999v-166h-999z" />
<glyph unicode="&#x2014;" horiz-adv-x="2170" d="M43 499v166h2084v-166h-2084z" />
<glyph unicode="&#x2018;" horiz-adv-x="483" d="M135 1092v221l110 248h105l-62 -243h53v-226h-206z" />
<glyph unicode="&#x2019;" horiz-adv-x="483" d="M135 1092l60 246h-54v226h209v-222l-114 -250h-101z" />
<glyph unicode="&#x201a;" horiz-adv-x="483" d="M124 -252l60 244h-54v225h206v-221l-110 -248h-102z" />
<glyph unicode="&#x201c;" horiz-adv-x="650" d="M81 1092v221l110 248h102l-61 -243h54v-226h-205zM363 1092v221l110 248h105l-62 -243h53v-226h-206z" />
<glyph unicode="&#x201d;" horiz-adv-x="650" d="M91 1092l61 246h-52v226h206v-222l-111 -250h-104zM375 1092l62 246h-55v226h206v-222l-110 -250h-103z" />
<glyph unicode="&#x201e;" horiz-adv-x="804" d="M124 -252l60 244h-54v225h206v-221l-110 -248h-102zM460 -252l62 244h-56v225h207v-221l-111 -248h-102z" />
<glyph unicode="&#x2026;" horiz-adv-x="1535" d="M147 0v219h207v-219h-207zM658 0v219h206v-219h-206zM1179 0v219h206v-219h-206z" />
<glyph unicode="&#x202f;" horiz-adv-x="383" />
<glyph unicode="&#x2039;" horiz-adv-x="626" d="M95 504l255 403h168l-249 -403l249 -404h-168z" />
<glyph unicode="&#x203a;" horiz-adv-x="605" d="M98 100l248 404l-248 403h169l255 -403l-255 -404h-169z" />
<glyph unicode="&#x205f;" horiz-adv-x="479" />
<glyph unicode="&#x20ac;" d="M31 580v112h85v128h-85v112h85v149q0 96 28 177.5t81 139.5t131.5 91t175.5 33q147 0 256 -79.5t146 -222.5l-174 -50q-24 77 -78 131t-150 54q-62 0 -107.5 -22t-74.5 -60t-41.5 -87t-12.5 -101v-153h383v-112h-383v-128h383v-112h-383v-168q0 -52 14.5 -98.5t44 -82.5 t74 -57.5t103.5 -21.5q98 0 153 52.5t86 136.5l163 -51q-37 -143 -144.5 -223t-257.5 -80q-97 0 -174.5 31.5t-130.5 90t-82 141t-29 182.5v148h-85z" />
<glyph unicode="&#x2122;" horiz-adv-x="1643" d="M81 1385v125h588v-125h-226v-741h-137v741h-225zM777 642v866h135l240 -538l238 538h132v-866h-137l-2 522l-178 -381h-115l-176 383h-2v-524h-135z" />
<glyph unicode="&#x25fc;" horiz-adv-x="1073" d="M0 0v1075h1075v-1075h-1075z" />
</font>
</defs>
</svg>
